<svg width="17" height="17" viewBox="0 0 17 17" fill="none" xmlns="http://www.w3.org/2000/svg">
<g clip-path="url(#clip0)">
<path d="M14.6475 11.8321C13.6206 10.9537 12.5783 10.4217 11.564 11.2987L10.9583 11.8288C10.5151 12.2136 9.69115 14.0114 6.50544 10.3467C3.32038 6.68665 5.21576 6.11678 5.65958 5.73532L6.2686 5.20458C7.27765 4.32556 6.89685 3.21898 6.16908 2.0799L5.7299 1.38995C4.99882 0.253521 4.20272 -0.492821 3.19102 0.384877L2.64436 0.862536C2.19722 1.18827 0.947349 2.24708 0.644169 4.25856C0.279291 6.67206 1.43032 9.43584 4.06739 12.4683C6.70114 15.5021 9.27983 17.026 11.7225 16.9994C13.7526 16.9775 14.9786 15.8882 15.362 15.4922L15.9107 15.0138C16.9197 14.1368 16.2928 13.2438 15.2652 12.3635L14.6475 11.8321Z" fill="#0B1014"/>
</g>
<defs>
<clipPath id="clip0">
<rect width="17" height="17" fill="white"/>
</clipPath>
</defs>
</svg>
